<svg width="64" height="57" viewBox="0 0 64 57" fill="none" xmlns="http://www.w3.org/2000/svg">
<path d="M14.48 54.473L0.558 30.359C-0.186 29.071 -0.186 27.483 0.558 26.195L14.48 2.082C15.223 0.795 16.595 0.002 18.08 0H45.937C47.417 0.007 48.782 0.8 49.522 2.082L63.442 26.195C64.186 27.483 64.186 29.071 63.442 30.359L49.52 54.473C48.777 55.76 47.405 56.553 45.92 56.555H18.07C16.587 56.55 15.22 55.757 14.477 54.473H14.48Z" fill="#4386FA"/>
<path opacity="0.1" d="M40.6972 20.5127C40.6972 20.5127 44.5672 29.7957 39.2912 35.0577C34.0152 40.3197 24.4082 36.9517 24.4082 36.9517L43.9502 56.5477H45.9342C47.4202 56.5457 48.7922 55.7517 49.5342 54.4657L58.7502 38.5077L40.6972 20.5127Z" fill="black"/>
<path d="M45.2669 39.5076L40.9999 35.2306C40.9535 35.183 40.9002 35.1425 40.8419 35.1106C42.6569 32.7727 43.5123 29.8308 43.2338 26.8842C42.9553 23.9377 41.5638 21.2081 39.3429 19.2517C37.122 17.2953 34.2388 16.2593 31.2806 16.3547C28.3224 16.4501 25.5119 17.6697 23.4216 19.7651C21.3314 21.8605 20.1187 24.674 20.0306 27.6324C19.9424 30.5908 20.9856 33.4715 22.9474 35.6876C24.9093 37.9037 27.6422 39.2884 30.5895 39.5597C33.5367 39.831 36.4765 38.9683 38.8099 37.1476C38.8403 37.2027 38.8784 37.2532 38.9229 37.2976L43.1999 41.5746C43.3255 41.7001 43.4958 41.7706 43.6734 41.7706C43.851 41.7706 44.0213 41.7001 44.1469 41.5746L45.2669 40.4546C45.3924 40.329 45.4629 40.1587 45.4629 39.9811C45.4629 39.8035 45.3924 39.6332 45.2669 39.5076ZM31.6399 36.7416C29.9092 36.7418 28.2174 36.2288 26.7783 35.2674C25.3392 34.306 24.2175 32.9394 23.5552 31.3405C22.8928 29.7416 22.7194 27.9822 23.057 26.2848C23.3946 24.5874 24.228 23.0282 25.4517 21.8044C26.6755 20.5806 28.2347 19.7473 29.9321 19.4097C31.6295 19.0721 33.389 19.2455 34.9879 19.9078C36.5867 20.5702 37.9533 21.6919 38.9147 23.131C39.8761 24.5701 40.3891 26.2619 40.3889 27.9926C40.3886 30.3129 39.4668 32.5381 37.8261 34.1788C36.1854 35.8195 33.9602 36.7413 31.6399 36.7416ZM26.0469 27.5256V31.1416C26.6039 32.1246 27.4099 32.9446 28.3849 33.5166V27.5036L26.0469 27.5256ZM30.4219 24.5276V34.2996C31.1947 34.442 31.9871 34.442 32.7599 34.2996V24.5276H30.4219ZM37.1859 31.1336V28.9916H34.8499V33.4916C35.8235 32.9211 36.6299 32.1044 37.1879 31.1236L37.1859 31.1336Z" fill="white"/>
</svg>
