<svg width="102" height="28" viewBox="0 0 102 28" fill="none" xmlns="http://www.w3.org/2000/svg">
<path d="M60.9195 10.1509L57.1253 12.1704C56.5269 10.9464 55.7857 10.3345 54.9018 10.3345C54.4802 10.3345 54.1198 10.4772 53.8206 10.7628C53.5215 11.0348 53.3719 11.3884 53.3719 11.8236C53.3719 12.5851 54.2558 13.3399 56.0237 14.0879C58.458 15.135 60.0967 16.1006 60.9399 16.9845C61.783 17.8685 62.2046 19.0584 62.2046 20.5543C62.2046 22.4718 61.4975 24.0766 60.0831 25.3685C58.7096 26.5924 57.0505 27.2044 55.1058 27.2044C51.774 27.2044 49.4145 25.5793 48.0273 22.329L51.9439 20.5135C52.4879 21.4655 52.9027 22.0707 53.1883 22.329C53.7459 22.8458 54.4122 23.1042 55.1874 23.1042C56.7377 23.1042 57.5129 22.397 57.5129 20.9827C57.5129 20.1668 56.9145 19.4052 55.7178 18.698C55.2554 18.4668 54.793 18.2425 54.3306 18.0249C53.8682 17.8073 53.3991 17.5829 52.9231 17.3517C51.5904 16.6989 50.652 16.0462 50.108 15.3934C49.4145 14.5638 49.0677 13.4963 49.0677 12.1908C49.0677 10.4636 49.6593 9.03572 50.8424 7.90698C52.0527 6.77824 53.5215 6.21387 55.2486 6.21387C57.7916 6.21387 59.6819 7.5262 60.9195 10.1509Z" fill="#F3992E"/>
<path d="M66.3456 6.76464H70.9354V8.53935C71.7785 7.65539 72.5265 7.05022 73.1793 6.72384C73.8456 6.38386 74.6344 6.21387 75.5455 6.21387C76.7559 6.21387 78.0206 6.60825 79.3397 7.39701L77.2386 11.5992C76.3683 10.9736 75.5183 10.6608 74.6888 10.6608C72.1865 10.6608 70.9354 12.5511 70.9354 16.3317V26.6332H66.3456V6.76464Z" fill="#F3992E"/>
<path d="M86.2346 6.76464L91.3751 17.9229L96.4953 6.76464H101.656L91.3343 28L81.0941 6.76464H86.2346Z" fill="#F3992E"/>
<path fill-rule="evenodd" clip-rule="evenodd" d="M10.4443 27.6776C16.2125 27.6776 20.8885 23.0015 20.8885 17.2333C20.8885 11.4651 16.2125 6.78906 10.4443 6.78906C4.67606 6.78906 0 11.4651 0 17.2333C0 23.0015 4.67606 27.6776 10.4443 27.6776ZM10.4441 23.5C13.905 23.5 16.7106 20.6944 16.7106 17.2334C16.7106 13.7725 13.905 10.9669 10.4441 10.9669C6.98315 10.9669 4.17752 13.7725 4.17752 17.2334C4.17752 20.6944 6.98315 23.5 10.4441 23.5Z" fill="#36539A"/>
<path fill-rule="evenodd" clip-rule="evenodd" d="M29.2436 0H25.0659V17.233H25.0661C25.0661 17.2331 25.0661 17.2331 25.0661 17.2331C25.0661 23.0013 29.7422 27.6774 35.5104 27.6774C41.2786 27.6774 45.9546 23.0013 45.9546 17.2331C45.9546 11.4649 41.2786 6.78885 35.5104 6.78885C33.1591 6.78885 30.9892 7.56584 29.2436 8.87708V0ZM41.777 17.2332C41.777 20.6941 38.9713 23.4998 35.5104 23.4998C32.0495 23.4998 29.2438 20.6941 29.2438 17.2332C29.2438 13.7723 32.0495 10.9667 35.5104 10.9667C38.9713 10.9667 41.777 13.7723 41.777 17.2332Z" fill="#36539A"/>
<path fill-rule="evenodd" clip-rule="evenodd" d="M14.7685 14.9341C13.927 14.4738 12.9614 14.2122 11.9346 14.2122C9.02517 14.2122 6.60643 16.3132 6.1128 19.0807C5.75045 18.4054 5.54492 17.6334 5.54492 16.8133C5.54492 14.1609 7.69512 12.0107 10.3475 12.0107C12.333 12.0107 14.0371 13.2156 14.7685 14.9341Z" fill="#F3992E"/>
<path fill-rule="evenodd" clip-rule="evenodd" d="M31.7359 14.3501C32.3194 14.1574 32.9431 14.0532 33.5912 14.0532C36.8483 14.0532 39.4904 16.6863 39.5051 19.9399C40.2263 19.0998 40.6621 18.0074 40.6621 16.8133C40.6621 14.1609 38.5119 12.0107 35.8595 12.0107C34.1076 12.0107 32.5748 12.9488 31.7359 14.3501Z" fill="#F3992E"/>
<path d="M24.0215 14.6221L21.6715 14.6221C21.6715 14.6221 21.1493 12.5332 19.8438 10.7055C18.556 8.90259 17.7549 8.35552 17.7549 8.35552C17.7549 8.35552 19.3216 8.87773 21.4104 8.87773C23.4993 8.87773 24.0215 8.35552 24.0215 8.35552C24.0215 8.35552 24.0215 10.1333 24.0215 11.4888C24.0215 13.0554 24.0215 14.6221 24.0215 14.6221Z" fill="#F3992E"/>
</svg>
