<svg width="63" height="65" viewBox="0 0 63 65" fill="none" xmlns="http://www.w3.org/2000/svg">
<path d="M46.734 46.991C47.1415 43.5985 47.0191 43.1035 49.5441 43.651L50.1866 43.7085C52.1291 43.796 54.669 43.396 56.1866 42.7035C59.399 41.2135 61.3041 38.7235 58.1366 39.3785C50.9116 40.8685 50.3866 38.421 50.3866 38.421C58.0191 27.096 61.2115 12.721 58.454 9.20348C50.944 -0.396522 37.9415 4.14348 37.724 4.26348L37.654 4.27598C36.229 3.97598 34.654 3.80098 32.829 3.77598C29.559 3.72598 27.079 4.63348 25.194 6.06098C25.194 6.06098 2.00155 -3.49402 3.07905 18.0785C3.30905 22.6685 9.65405 52.8285 17.229 43.7035C20.0015 40.3685 22.6765 37.551 22.6765 37.551C24.0015 38.4335 25.594 38.8835 27.2615 38.721L27.3915 38.611C27.3531 39.0431 27.3707 39.4784 27.444 39.906C25.494 42.086 26.069 42.4685 22.169 43.271C18.224 44.0835 20.544 45.531 22.054 45.911C23.889 46.371 28.134 47.021 31.004 43.006L30.889 43.4635C31.654 44.076 31.6015 47.8635 31.714 50.5685C31.8265 53.2735 32.004 55.801 32.5565 57.2885C33.109 58.776 33.7565 62.6135 38.8815 61.5385C43.164 60.621 46.4391 59.2985 46.7391 47.0135" fill="black"/>
<path d="M46.734 46.991C47.1415 43.5985 47.0191 43.1035 49.5441 43.651L50.1866 43.7085C52.1291 43.796 54.669 43.396 56.1865 42.7035C59.399 41.2135 61.3041 38.7235 58.1366 39.3785C50.9116 40.8685 50.3865 38.421 50.3865 38.421C58.019 27.096 61.2115 12.721 58.454 9.20348C50.944 -0.396522 37.9415 4.14348 37.724 4.26348L37.654 4.27598C36.229 3.97598 34.654 3.80098 32.829 3.77598C29.559 3.72598 27.079 4.63348 25.194 6.06098C25.194 6.06098 2.00155 -3.49402 3.07905 18.0785C3.30905 22.6685 9.65405 52.8285 17.229 43.7035C20.0015 40.3685 22.6765 37.551 22.6765 37.551C24.0015 38.4335 25.594 38.8835 27.2615 38.721L27.3915 38.611C27.3531 39.0431 27.3707 39.4784 27.444 39.906C25.494 42.086 26.069 42.4685 22.169 43.271C18.224 44.0835 20.544 45.531 22.054 45.911C23.889 46.371 28.134 47.021 31.004 43.006L30.889 43.4635C31.654 44.076 31.6015 47.8635 31.714 50.5685C31.8265 53.2735 32.004 55.801 32.5565 57.2885C33.109 58.776 33.7565 62.6135 38.8815 61.5385C43.164 60.621 46.4391 59.2985 46.7391 47.0135" stroke="black" stroke-width="5.3725"/>
<path d="M58.1141 39.401C50.8891 40.891 50.3641 38.4435 50.3641 38.4435C57.9966 27.1185 61.1891 12.7435 58.4341 9.22596C50.9241 -0.374041 37.9216 4.16846 37.7041 4.28596L37.6341 4.29846C36.0459 3.9798 34.4313 3.81156 32.8116 3.79596C29.5416 3.74596 27.0616 4.65346 25.1766 6.08096C25.1766 6.08096 1.98156 -3.47404 3.06156 18.0985C3.29156 22.6885 9.63656 52.8485 17.2116 43.7235C20.0016 40.3685 22.6766 37.551 22.6766 37.551C24.0016 38.4335 25.5941 38.8835 27.2616 38.721L27.3916 38.611C27.3534 39.0431 27.371 39.4783 27.4441 39.906C25.4941 42.086 26.0691 42.4685 22.1691 43.271C18.2241 44.0835 20.5441 45.531 22.0541 45.911C23.8891 46.371 28.1341 47.021 31.0041 43.006L30.8891 43.4635C31.6541 44.076 32.1891 47.446 32.0991 50.501C32.0091 53.556 31.9491 55.651 32.5491 57.291C33.1491 58.931 33.7491 62.616 38.8741 61.541C43.1566 60.6235 45.3741 58.241 45.6866 54.276C45.9066 51.456 46.4016 51.871 46.4366 49.351L46.8366 48.156C47.2941 44.331 46.9116 43.0985 49.5491 43.6735L50.1916 43.731C52.1341 43.8185 54.6766 43.4185 56.1666 42.726C59.3791 41.236 61.2816 38.746 58.1141 39.401Z" fill="#336791"/>
<path d="M31.3116 41.5688C31.1116 48.6838 31.3616 55.8488 32.0566 57.5688C32.7516 59.2888 34.2441 62.6938 39.3716 61.5988C43.6541 60.6813 45.2141 58.9038 45.8891 54.9813L47.4716 42.4388M25.1666 5.90128C25.1666 5.90128 1.95655 -3.58872 3.03655 17.9838C3.26655 22.5738 9.61156 52.7338 17.1866 43.6088C19.9516 40.2763 22.4516 37.6688 22.4516 37.6688M37.7016 4.16878C36.9016 4.41878 50.6116 -0.843725 58.4066 9.11377C61.1566 12.6313 57.9691 27.0063 50.3366 38.3313" stroke="white" stroke-width="1.79" stroke-linecap="round" stroke-linejoin="round"/>
<path d="M50.339 38.3261C50.339 38.3261 50.839 40.7761 58.089 39.2811C61.2565 38.6261 59.3491 41.1161 56.1391 42.6061C53.5041 43.8311 47.594 44.1436 47.4965 42.4561C47.2465 38.0936 50.6065 39.4186 50.364 38.3261C50.144 37.3411 48.6391 36.3761 47.6491 33.9661C46.7816 31.8661 35.749 15.7411 50.709 18.1336C51.259 18.0211 46.809 3.88355 32.809 3.67855C18.809 3.47355 19.2515 20.8911 19.2515 20.8911" stroke="white" stroke-width="1.79" stroke-linecap="round" stroke-linejoin="bevel"/>
<path d="M27.3941 39.821C25.4441 42.001 26.0191 42.3835 22.1191 43.186C18.1741 43.9985 20.4941 45.446 22.0041 45.826C23.8391 46.286 28.084 46.936 30.954 42.9185C31.829 41.6935 30.9491 39.7435 29.7491 39.2485C29.1691 39.0085 28.394 38.7085 27.399 39.8235L27.3941 39.821Z" stroke="white" stroke-width="1.79" stroke-linejoin="round"/>
<path d="M27.2666 39.7839C27.0666 38.5014 27.6865 36.9789 28.349 35.1939C29.344 32.5189 31.6391 29.8439 29.8041 21.3514C28.4366 15.0264 19.2541 20.0339 19.2541 20.8914C19.2541 21.7489 19.6691 25.2414 19.1041 29.3039C18.3616 34.6089 22.4791 39.0939 27.2191 38.6364" stroke="white" stroke-width="1.79" stroke-linecap="round" stroke-linejoin="round"/>
<path d="M25.0816 20.7635C25.0391 21.056 25.6191 21.8385 26.3716 21.9435C27.1241 22.0485 27.7666 21.4385 27.8091 21.1435C27.8516 20.8485 27.2716 20.5285 26.5191 20.4235C25.7666 20.3185 25.1191 20.4735 25.0816 20.7635Z" fill="white" stroke="white" stroke-width="0.5975"/>
<path d="M47.9916 20.1659C48.0316 20.4584 47.4541 21.2409 46.7016 21.3459C45.9491 21.4509 45.3016 20.8409 45.2641 20.5459C45.2266 20.2509 45.8016 19.9309 46.5541 19.8259C47.3066 19.7209 47.9541 19.8759 47.9916 20.1659Z" fill="white" stroke="white" stroke-width="0.2975"/>
<path d="M50.6816 18.1387C50.8066 20.4387 50.1866 22.0012 50.1066 24.4487C49.9916 28.0037 51.8016 32.0737 49.0741 36.1487" stroke="white" stroke-width="1.79" stroke-linecap="round" stroke-linejoin="round"/>
</svg>
