<?xml version="1.0" encoding="UTF-8"?>
<svg version="1.1" xmlns="http://www.w3.org/2000/svg" width="68" height="71">
<path d="M0 0 C22.44 0 44.88 0 68 0 C68 23.43 68 46.86 68 71 C45.56 71 23.12 71 0 71 C0 47.57 0 24.14 0 0 Z " fill="#E9F0F6" transform="translate(0,0)"/>
<path d="M0 0 C0.763125 0.495 1.52625 0.99 2.3125 1.5 C2.3125 3.15 2.3125 4.8 2.3125 6.5 C4.1996875 6.190625 4.1996875 6.190625 6.125 5.875 C9.7139758 5.28664331 10.06323878 5.33382585 13.3125 7.5 C13.70068359 10.6328125 13.70068359 10.6328125 13.7109375 14.625 C13.71380768 15.3277002 13.71667786 16.03040039 13.71963501 16.75439453 C13.72167714 18.24056809 13.71613678 19.72676843 13.70361328 21.21289062 C13.68755992 23.49149508 13.70345499 25.7683259 13.72265625 28.046875 C13.72067384 29.48958726 13.71683021 30.93229841 13.7109375 32.375 C13.70755371 33.69242188 13.70416992 35.00984375 13.70068359 36.3671875 C13.57258301 37.40101562 13.44448242 38.43484375 13.3125 39.5 C10.3125 41.5 10.3125 41.5 7.25 41.1875 C4.3125 40.5 4.3125 40.5 2.3125 39.5 C2.3125 41.48 2.3125 43.46 2.3125 45.5 C-3.16949398 49.05588799 -8.35812769 49.23139413 -14.6875 48.5 C-18.375 47 -18.375 47 -20.6875 45.5 C-20.6875 43.52 -20.6875 41.54 -20.6875 39.5 C-21.945625 39.87125 -23.20375 40.2425 -24.5 40.625 C-26.64453125 41.2578125 -26.64453125 41.2578125 -28.6875 41.5 C-29.6775 40.84 -30.6675 40.18 -31.6875 39.5 C-31.95477014 37.01659097 -32.03616334 34.78527932 -31.98046875 32.3046875 C-31.97622391 31.59724396 -31.97197906 30.88980042 -31.96760559 30.16091919 C-31.95079547 27.89856095 -31.91314128 25.63708952 -31.875 23.375 C-31.85995607 21.84246077 -31.84626716 20.3099076 -31.83398438 18.77734375 C-31.80088462 15.01788682 -31.74908825 11.25909382 -31.6875 7.5 C-27.1015625 5.390625 -27.1015625 5.390625 -23.375 6.375 C-22.488125 6.74625 -21.60125 7.1175 -20.6875 7.5 C-20.6875 5.52 -20.6875 3.54 -20.6875 1.5 C-14.23800924 -2.68345347 -7.01041884 -2.8516958 0 0 Z " fill="#2F73B7" transform="translate(43.6875,11.5)"/>
<path d="M0 0 C3.465 1.485 3.465 1.485 7 3 C7 4.65 7 6.3 7 8 C8.8871875 7.690625 8.8871875 7.690625 10.8125 7.375 C14.4014758 6.78664331 14.75073878 6.83382585 18 9 C18.38818359 12.1328125 18.38818359 12.1328125 18.3984375 16.125 C18.40130768 16.8277002 18.40417786 17.53040039 18.40713501 18.25439453 C18.40917714 19.74056809 18.40363678 21.22676843 18.39111328 22.71289062 C18.37505992 24.99149508 18.39095499 27.2683259 18.41015625 29.546875 C18.40817384 30.98958726 18.40433021 32.43229841 18.3984375 33.875 C18.39505371 35.19242188 18.39166992 36.50984375 18.38818359 37.8671875 C18.26008301 38.90101562 18.13198242 39.93484375 18 41 C15 43 15 43 11.9375 42.6875 C9 42 9 42 7 41 C7 42.98 7 44.96 7 47 C4.69 47.99 2.38 48.98 0 50 C0 33.5 0 17 0 0 Z " fill="#235F9C" transform="translate(39,10)"/>
<path d="M0 0 C2.64 0.66 5.28 1.32 8 2 C8 12.56 8 23.12 8 34 C5.36 34.66 2.72 35.32 0 36 C-0.99 35.34 -1.98 34.68 -3 34 C-3.38818359 30.8671875 -3.38818359 30.8671875 -3.3984375 26.875 C-3.40130768 26.1722998 -3.40417786 25.46959961 -3.40713501 24.74560547 C-3.40917714 23.25943191 -3.40363678 21.77323157 -3.39111328 20.28710938 C-3.37505992 18.00850492 -3.39095499 15.7316741 -3.41015625 13.453125 C-3.40817384 12.01041274 -3.40433021 10.56770159 -3.3984375 9.125 C-3.39505371 7.80757812 -3.39166992 6.49015625 -3.38818359 5.1328125 C-3.26008301 4.09898438 -3.13198242 3.06515625 -3 2 C-2.01 1.34 -1.02 0.68 0 0 Z " fill="#4E90CB" transform="translate(15,17)"/>
<path d="M0 0 C3.465 1.485 3.465 1.485 7 3 C7 4.65 7 6.3 7 8 C7.66 8.33 8.32 8.66 9 9 C8.34 9 7.68 9 7 9 C7 21.54 7 34.08 7 47 C4.69 47.99 2.38 48.98 0 50 C0 33.5 0 17 0 0 Z " fill="#5091CC" transform="translate(39,10)"/>
<path d="M0 0 C0 15.84 0 31.68 0 48 C-5 47 -5 47 -7 46 C-7 31.48 -7 16.96 -7 2 C-3 0 -3 0 0 0 Z " fill="#235F9B" transform="translate(30,11)"/>
<path d="M0 0 C4.875 0.875 4.875 0.875 6 2 C6.12553427 4.35224592 6.18859672 6.67360743 6.203125 9.02734375 C6.20882507 9.73145889 6.21452515 10.43557404 6.22039795 11.161026 C6.22985963 12.65315238 6.23638656 14.14529976 6.24023438 15.63745117 C6.24994559 17.9246855 6.28095825 20.21102349 6.3125 22.49804688 C6.31902925 23.94530714 6.32428003 25.39257386 6.328125 26.83984375 C6.3404718 27.52634506 6.3528186 28.21284637 6.36553955 28.92015076 C6.35644531 30.85131836 6.35644531 30.85131836 6 34 C5.01 34.66 4.02 35.32 3 36 C2.01 35.67 1.02 35.34 0 35 C0.66 35 1.32 35 2 35 C2 23.78 2 12.56 2 1 C1.34 0.67 0.68 0.34 0 0 Z " fill="#4F8FC9" transform="translate(51,17)"/>
<path d="M0 0 C0.99 0 1.98 0 3 0 C3 11.22 3 22.44 3 34 C1.68 33.67 0.36 33.34 -1 33 C-1.02465392 28.46102295 -1.04283789 23.92208457 -1.05493164 19.38305664 C-1.0599714 17.83780234 -1.0668032 16.29255284 -1.07543945 14.74731445 C-1.08752076 12.53074971 -1.09323173 10.31424782 -1.09765625 8.09765625 C-1.10281754 7.4028566 -1.10797882 6.70805695 -1.11329651 5.99220276 C-1.11349277 4.3277067 -1.06189129 2.66334501 -1 1 C-0.67 0.67 -0.34 0.34 0 0 Z " fill="#25619D" transform="translate(13,18)"/>
<path d="M0 0 C0.70125 0.7425 1.4025 1.485 2.125 2.25 C4.9280019 4.93113225 7.72677055 6.9364423 11 9 C11.99 9.66 12.98 10.32 14 11 C9.38 11 4.76 11 0 11 C0 7.37 0 3.74 0 0 Z " fill="#FEFEFE" transform="translate(0,60)"/>
<path d="M0 0 C0.33 0 0.66 0 1 0 C1 3.3 1 6.6 1 10 C-3.29 10 -7.58 10 -12 10 C-11.01 9.34 -10.02 8.68 -9 8 C-7.61759471 7.01026236 -6.24298125 6.00958026 -4.875 5 C-3.81925781 4.2265625 -3.81925781 4.2265625 -2.7421875 3.4375 C-0.88089384 2.09951865 -0.88089384 2.09951865 0 0 Z " fill="#FEFEFE" transform="translate(67,61)"/>
<path d="M0 0 C2.97 0 5.94 0 9 0 C6 3 3 6 0 9 C0 6.03 0 3.06 0 0 Z " fill="#FEFEFE" transform="translate(0,0)"/>
<path d="M0 0 C2.64 0 5.28 0 8 0 C8 2.64 8 5.28 8 8 C6.85073734 7.04578192 5.70569459 6.08647955 4.5625 5.125 C3.92441406 4.59132813 3.28632812 4.05765625 2.62890625 3.5078125 C1 2 1 2 0 0 Z " fill="#FEFEFE" transform="translate(60,0)"/>
</svg>
