<svg width="62" height="65" viewBox="0 0 62 65" fill="none" xmlns="http://www.w3.org/2000/svg">
<path d="M8.64474 15.304L21.6527 23.104C22.3731 23.5369 23.2188 23.7132 24.0521 23.604C24.8854 23.4949 25.6572 23.1068 26.2417 22.503C26.6323 22.1265 26.9425 21.6746 27.1534 21.1748C27.3643 20.675 27.4716 20.1375 27.4687 19.595V3.962C27.4947 3.27727 27.3356 2.59821 27.0081 1.99632C26.6806 1.39444 26.1968 0.892029 25.6077 0.541999C25.0188 0.191981 24.3464 0.00724531 23.6612 0.00724531C22.9761 0.00724531 22.3037 0.191981 21.7147 0.541999C21.1257 0.892029 20.6419 1.39444 20.3144 1.99632C19.9869 2.59821 19.8277 3.27727 19.8537 3.962V12.858L12.4667 8.428C12.0311 8.16944 11.5481 8.00082 11.0462 7.93212C10.5444 7.86341 10.0338 7.89602 9.54474 8.028C8.55874 8.293 7.72674 8.968 7.24474 9.872C6.18774 11.772 6.80474 14.152 8.64474 15.294M39.9147 23.094L52.9227 15.294C54.7627 14.151 55.3807 11.761 54.3227 9.87C54.0835 9.42381 53.7564 9.03069 53.3611 8.71433C52.9658 8.39798 52.5106 8.16494 52.0228 8.02926C51.5351 7.89358 51.0249 7.85808 50.523 7.92489C50.0212 7.9917 49.538 8.15944 49.1027 8.418L41.8027 12.788V3.948C41.8213 3.43638 41.7365 2.92628 41.5535 2.44814C41.3705 1.97001 41.0931 1.53367 40.7377 1.16516C40.3823 0.79666 39.9563 0.50356 39.4851 0.303369C39.0139 0.103177 38.5072 0 37.9952 0C37.4833 0 36.9766 0.103177 36.5054 0.303369C36.0342 0.50356 35.6082 0.79666 35.2528 1.16516C34.8974 1.53367 34.6199 1.97001 34.437 2.44814C34.254 2.92628 34.1692 3.43638 34.1877 3.948V19.271C34.1095 20.0918 34.2817 20.917 34.6817 21.638C35.1637 22.541 35.9957 23.208 36.9817 23.482C37.4703 23.6186 37.9816 23.6536 38.4842 23.5848C38.9868 23.516 39.4699 23.3449 39.9037 23.082M28.3367 31.976C28.3497 31.726 28.4447 31.476 28.6087 31.296L30.1287 29.716C30.3087 29.5485 30.5413 29.4488 30.7867 29.434H30.8437C31.0886 29.4485 31.3207 29.5483 31.4997 29.716L33.0197 31.296C33.1843 31.486 33.2801 31.7259 33.2917 31.977V32.037C33.2797 32.2886 33.184 32.529 33.0197 32.72L31.4997 34.3C31.3215 34.4692 31.0891 34.5698 30.8437 34.584H30.7867C30.5407 34.57 30.3067 34.469 30.1287 34.3L28.6087 32.72C28.4445 32.529 28.3487 32.2886 28.3367 32.037V31.976ZM23.7327 31.326V32.69C23.7496 33.0328 23.8806 33.3601 24.1047 33.62L29.2647 38.977C29.5082 39.2072 29.8252 39.344 30.1597 39.363H31.4717C31.8063 39.344 32.1233 39.2072 32.3667 38.977L37.5267 33.62C37.7509 33.3601 37.8818 33.0328 37.8987 32.69V31.326C37.8818 30.9832 37.7509 30.6559 37.5267 30.396L32.3667 25.039C32.1233 24.8088 31.8063 24.672 31.4717 24.653H30.1597C29.8252 24.672 29.5082 24.8088 29.2647 25.039L24.1047 30.406C23.8812 30.6663 23.7504 30.9934 23.7327 31.336M1.91474 27.626L9.27974 32.043L1.91474 36.456C1.02956 37.0074 0.390499 37.8783 0.130037 38.8881C-0.130425 39.8979 0.00768697 40.9692 0.515743 41.88C0.754659 42.3268 1.08164 42.7206 1.47694 43.0375C1.87225 43.3544 2.32768 43.588 2.81574 43.724C3.80174 43.998 4.85774 43.857 5.73774 43.332L18.7457 35.532C19.9457 34.77 20.6457 33.454 20.6457 32.04C20.6456 31.3456 20.4717 30.6623 20.1399 30.0524C19.808 29.4424 19.3287 28.9252 18.7457 28.548L5.73774 20.748C5.30214 20.4894 4.81913 20.3208 4.31725 20.2521C3.81537 20.1834 3.30481 20.216 2.81574 20.348C1.82974 20.613 0.997743 21.288 0.515743 22.192C-0.541257 24.092 0.0757426 26.47 1.91574 27.614M40.9107 32.056C40.8992 32.7516 41.0694 33.4382 41.4043 34.048C41.7393 34.6577 42.2275 35.1696 42.8207 35.533L55.8207 43.333C56.7007 43.857 57.7547 43.999 58.7407 43.725C59.7267 43.451 60.5577 42.785 61.0407 41.882C61.5512 40.9717 61.6906 39.8995 61.4297 38.8889C61.1689 37.8784 60.528 37.0075 59.6407 36.458L52.2847 32.044L59.6497 27.627C61.4897 26.484 62.1067 24.097 61.0497 22.205C60.8113 21.7578 60.4845 21.3638 60.0891 21.0468C59.6937 20.7298 59.238 20.4965 58.7497 20.361C57.7627 20.087 56.7077 20.227 55.8297 20.761L42.8297 28.561C42.232 28.927 41.741 29.4436 41.4058 30.0591C41.0706 30.6746 40.903 31.3673 40.9197 32.068M24.2647 40.514C23.367 40.3407 22.4368 40.506 21.6537 40.978L8.64574 48.778C6.80574 49.921 6.18974 52.308 7.24574 54.2C7.72874 55.103 8.55974 55.77 9.54574 56.043C10.034 56.1785 10.5447 56.2136 11.0469 56.1462C11.5491 56.0788 12.0324 55.9104 12.4677 55.651L19.8547 51.221V60.051C19.8344 60.5637 19.9178 61.0751 20.0999 61.5548C20.2821 62.0344 20.5592 62.4723 20.9147 62.8423C21.2703 63.2122 21.6968 63.5065 22.1689 63.7075C22.6409 63.9085 23.1487 64.0122 23.6617 64.0122C24.1748 64.0122 24.6826 63.9085 25.1546 63.7075C25.6267 63.5065 26.0532 63.2122 26.4087 62.8423C26.7643 62.4723 27.0414 62.0344 27.2236 61.5548C27.4057 61.0751 27.4891 60.5637 27.4687 60.051V44.406C27.4822 43.4815 27.1677 42.5822 26.5809 41.8676C25.9942 41.1531 25.1732 40.6696 24.2637 40.503M52.9237 48.779L39.9157 40.979C39.4804 40.7196 38.9971 40.5512 38.4949 40.4838C37.9927 40.4164 37.482 40.4515 36.9937 40.587C36.5055 40.7224 36.0499 40.9556 35.6545 41.2724C35.2592 41.5892 34.9323 41.983 34.6937 42.43C34.2937 43.1521 34.1215 43.9782 34.1997 44.8V60.05C34.1794 60.5627 34.2628 61.0741 34.4449 61.5538C34.6271 62.0334 34.9042 62.4713 35.2597 62.8413C35.6153 63.2112 36.0418 63.5055 36.5139 63.7065C36.9859 63.9075 37.4937 64.0112 38.0067 64.0112C38.5198 64.0112 39.0276 63.9075 39.4996 63.7065C39.9717 63.5055 40.3982 63.2112 40.7537 62.8413C41.1093 62.4713 41.3864 62.0334 41.5686 61.5538C41.7507 61.0741 41.8341 60.5627 41.8137 60.05V51.286L49.1007 55.656C49.5363 55.9146 50.0194 56.0832 50.5212 56.1519C51.0231 56.2206 51.5337 56.188 52.0227 56.056C53.0087 55.791 53.8407 55.116 54.3227 54.212C55.3797 52.312 54.7627 49.932 52.9227 48.79" fill="#29B5E8"/>
</svg>
