<svg width="85" height="72" viewBox="0 0 85 72" fill="none" xmlns="http://www.w3.org/2000/svg">
<path d="M65.1831 70.0335H15.9898C8.75268 70.0335 2.88745 64.2015 2.88745 57.0048V44.3861C2.88745 40.0619 6.41159 36.5576 10.7602 36.5576H70.4159C74.7648 36.5576 78.2888 40.0619 78.2888 44.3861V57.0048C78.2856 64.1983 72.4206 70.0335 65.1831 70.0335Z" fill="#91D5FF"/>
<path d="M28.1093 22.3652L23.8743 24.2837C23.7167 24.355 23.5292 24.2852 23.4575 24.1286C23.3857 23.972 23.4559 23.7855 23.6134 23.7142L27.8484 21.7958C28.0059 21.7244 28.1935 21.7941 28.2652 21.9508C28.337 22.1074 28.2668 22.2939 28.1093 22.3652Z" fill="white"/>
<path d="M31.2881 29.3036L27.0531 31.222C26.8956 31.2933 26.7081 31.2235 26.6363 31.0669C26.5646 30.9104 26.6347 30.7238 26.7922 30.6525L31.0273 28.7341C31.1847 28.6627 31.3723 28.7325 31.444 28.8891C31.5158 29.0457 31.4457 29.2322 31.2881 29.3036Z" fill="white"/>
<path d="M37.5597 34.9246L11.677 46.6491C11.2475 46.8437 10.7419 46.6532 10.5475 46.229L0.67936 24.6889C0.483691 24.2618 0.675198 23.759 1.10185 23.5657L26.9846 11.8412C27.4141 11.6466 27.9197 11.837 28.1141 12.2613L37.9823 33.8014C38.1779 34.2285 37.9864 34.7313 37.5597 34.9246ZM1.36274 24.1352C1.25106 24.1858 1.20118 24.3184 1.25205 24.4295L11.1202 45.9696C11.171 46.0806 11.3045 46.1302 11.4161 46.0796L37.2989 34.3551C37.4105 34.3045 37.4604 34.1719 37.4095 34.0608L27.5414 12.5207C27.4905 12.4097 27.3571 12.3601 27.2455 12.4107L1.36274 24.1352Z" fill="#E6F7FF"/>
<g filter="url(#filter0_d_17_3047)">
<path d="M37.5597 34.9246L11.677 46.6491C11.2475 46.8437 10.7419 46.6532 10.5475 46.229L0.67936 24.6889C0.483691 24.2618 0.675198 23.759 1.10185 23.5657L26.9846 11.8412C27.4141 11.6466 27.9197 11.837 28.1141 12.2613L37.9823 33.8014C38.1779 34.2285 37.9864 34.7313 37.5597 34.9246ZM1.36274 24.1352C1.25106 24.1858 1.20118 24.3184 1.25205 24.4295L11.1202 45.9696C11.171 46.0806 11.3045 46.1302 11.4161 46.0796L37.2989 34.3551C37.4105 34.3045 37.4604 34.1719 37.4095 34.0608L27.5414 12.5207C27.4905 12.4097 27.3571 12.3601 27.2455 12.4107L1.36274 24.1352Z" fill="#E6F7FF"/>
</g>
<path d="M26.5665 18.996L6.38488 28.138C6.2274 28.2094 6.03985 28.1395 5.9681 27.983C5.89635 27.8264 5.96651 27.6399 6.124 27.5686L26.3056 18.4265C26.4631 18.3552 26.6506 18.4249 26.7224 18.5815C26.7941 18.7382 26.724 18.9246 26.5665 18.996Z" fill="#91D5FF"/>
<path d="M29.6512 25.7301L9.46958 34.8721C9.31211 34.9434 9.12454 34.8737 9.05283 34.7171C8.98105 34.5604 9.05125 34.374 9.20872 34.3026L29.3903 25.1606C29.5478 25.0892 29.7353 25.1591 29.8071 25.3156C29.8802 25.4751 29.8087 25.6587 29.6512 25.7301Z" fill="#91D5FF"/>
<path d="M18.8092 26.5779L7.92811 31.5069C7.77064 31.5782 7.58308 31.5085 7.5113 31.3519C7.43958 31.1952 7.50972 31.0088 7.66719 30.9374L18.5483 26.0084C18.7058 25.937 18.8934 26.0068 18.9651 26.1634C19.0369 26.32 18.9667 26.5065 18.8092 26.5779Z" fill="#91D5FF"/>
<path d="M21.9882 33.5174L11.107 38.4464C10.9496 38.5177 10.762 38.448 10.6903 38.2914C10.6185 38.1348 10.6887 37.9483 10.8462 37.8769L21.7273 32.948C21.8848 32.8766 22.0724 32.9463 22.1441 33.103C22.2158 33.2596 22.1456 33.4461 21.9882 33.5174Z" fill="#91D5FF"/>
<path d="M19.9187 38.3355L12.5797 41.66C12.4223 41.7313 12.2347 41.6616 12.1629 41.505C12.0912 41.3484 12.1613 41.1619 12.3188 41.0905L19.6578 37.7661C19.8154 37.6947 20.0029 37.7644 20.0746 37.9211C20.1464 38.0777 20.0762 38.2642 19.9187 38.3355Z" fill="#91D5FF"/>
<g opacity="0.81">
<path d="M52.2857 27.4448L56.906 27.9982C57.0779 28.0188 57.2015 28.1754 57.1808 28.3463C57.1601 28.5171 57.0026 28.6401 56.8308 28.6195L52.2104 28.066C52.0385 28.0454 51.915 27.8888 51.9356 27.7179C51.9563 27.5471 52.1139 27.4242 52.2857 27.4448Z" fill="white"/>
<path d="M53.203 19.8743L57.8233 20.4277C57.9952 20.4483 58.1188 20.6049 58.0981 20.7758C58.0775 20.9466 57.9199 21.0696 57.7481 21.049L53.1277 20.4955C52.9559 20.4749 52.8323 20.3183 52.853 20.1474C52.8736 19.9766 53.0312 19.8537 53.203 19.8743Z" fill="white"/>
<g filter="url(#filter1_d_17_3047)">
<path d="M57.2933 8.58027L82.9675 20.7496C83.3938 20.9516 83.5719 21.4591 83.3705 21.8799L73.1276 43.2465C72.9249 43.6702 72.4143 43.8477 71.9912 43.6471L46.317 31.4777C45.8909 31.2757 45.7124 30.7683 45.9141 30.3474L56.1567 8.98084C56.3597 8.55717 56.8701 8.37967 57.2933 8.58027ZM72.2619 43.0822C72.3727 43.1347 72.5068 43.0874 72.5597 42.9773L82.8025 21.6106C82.8548 21.5005 82.8076 21.367 82.6968 21.3146L57.0225 9.14513C56.9117 9.09266 56.7776 9.13993 56.7247 9.25012L46.4822 30.6167C46.4294 30.7268 46.4769 30.8603 46.5877 30.9129L72.2619 43.0822Z" fill="#E6F7FF"/>
<path d="M57.2933 8.58027L82.9675 20.7496C83.3938 20.9516 83.5719 21.4591 83.3705 21.8799L73.1276 43.2465C72.9249 43.6702 72.4143 43.8477 71.9912 43.6471L46.317 31.4777C45.8909 31.2757 45.7124 30.7683 45.9141 30.3474L56.1567 8.98084C56.3597 8.55717 56.8701 8.37967 57.2933 8.58027ZM72.2619 43.0822C72.3727 43.1347 72.5068 43.0874 72.5597 42.9773L82.8025 21.6106C82.8548 21.5005 82.8076 21.367 82.6968 21.3146L57.0225 9.14513C56.9117 9.09266 56.7776 9.13993 56.7247 9.25012L46.4822 30.6167C46.4294 30.7268 46.4769 30.8603 46.5877 30.9129L72.2619 43.0822Z" fill="#E6F7FF"/>
</g>
<path d="M52.0965 27.1946L72.1158 36.6835C72.2719 36.7576 72.3387 36.9453 72.2644 37.1006C72.1894 37.2559 72.0012 37.3224 71.8444 37.2484L51.8257 27.7595C51.6695 27.6854 51.6026 27.4978 51.6771 27.3425C51.7515 27.1871 51.9402 27.1206 52.0965 27.1946Z" fill="#91D5FF"/>
<path d="M55.2982 20.5156L75.3175 30.0044C75.4736 30.0785 75.5404 30.2662 75.4661 30.4215C75.3911 30.5768 75.2029 30.6433 75.0461 30.5693L55.0273 21.0804C54.8711 21.0064 54.8043 20.8187 54.8787 20.6634C54.9546 20.5052 55.1419 20.4415 55.2982 20.5156Z" fill="#91D5FF"/>
<path d="M62.9239 28.2267L73.7177 33.3428C73.8738 33.4168 73.9405 33.6045 73.8662 33.7598C73.7913 33.9151 73.6031 33.9817 73.4463 33.9076L62.6531 28.7916C62.4969 28.7175 62.43 28.5298 62.5045 28.3745C62.5789 28.2192 62.7676 28.1527 62.9239 28.2267Z" fill="#91D5FF"/>
<path d="M66.2231 21.3434L77.0169 26.4594C77.173 26.5335 77.2398 26.7212 77.1655 26.8765C77.0912 27.0319 76.9023 27.0984 76.7461 27.0244L65.9524 21.9083C65.7963 21.8343 65.7295 21.6466 65.8038 21.4912C65.8781 21.3359 66.067 21.2694 66.2231 21.3434Z" fill="#91D5FF"/>
<path d="M71.2653 19.8197L78.545 23.2703C78.7018 23.3443 78.7686 23.532 78.6943 23.6874C78.6193 23.8428 78.4311 23.9093 78.2743 23.8352L70.9945 20.3846C70.8384 20.3105 70.7716 20.1229 70.8459 19.9675C70.9202 19.8121 71.1091 19.7457 71.2653 19.8197Z" fill="#91D5FF"/>
</g>
<path opacity="0.36" d="M32.5871 39.2647L61.2692 47.5142C61.9703 47.7149 62.7036 47.3149 62.9055 46.6177L71.2016 18.0969C71.4037 17.3998 71.0014 16.6706 70.3 16.4698L41.618 8.22033C40.9169 8.01961 40.1836 8.41962 39.9817 9.11676L31.6855 37.6376C31.4798 38.3325 31.8852 39.0609 32.5871 39.2647Z" fill="#9CD1FA"/>
<path d="M35.2809 38.3296L62.6597 46.2067C63.721 46.5134 64.8317 45.9041 65.1371 44.8496L73.0584 17.6249C73.367 16.5695 72.7543 15.4652 71.694 15.1616L44.315 7.28452C43.2537 6.97787 42.1431 7.58717 41.8377 8.64163L33.9161 35.8664C33.6077 36.9217 34.2204 38.026 35.2809 38.3296Z" fill="white"/>
<path d="M36.8076 35.9077L62.7115 43.359L70.2049 17.6009L44.3011 10.1496L36.8076 35.9077Z" fill="#91D5FF"/>
<path opacity="0.47" d="M36.7321 36.0255L36.4325 35.9393L39.405 25.7263L39.4444 25.5929L44.1194 23.3826C45.727 22.6231 47.6746 23.1659 48.6481 24.6479L53.2323 31.6271C53.4078 31.8949 53.7405 32.008 54.0444 31.9022L59.1655 30.1085C60.121 29.773 61.1589 30.2121 61.5813 31.1269L64.634 37.7323L62.937 43.5641L36.7321 36.0255ZM61.0124 31.3866C60.7269 30.7659 60.019 30.4666 59.3704 30.6954L54.2493 32.4891C53.6751 32.6919 53.0417 32.4766 52.7081 31.9689L48.1239 24.9896C47.3203 23.7673 45.7129 23.3162 44.3858 23.9436L39.9648 26.0321L37.2052 35.516L62.5113 42.7958L63.9698 37.7807L61.0124 31.3866Z" fill="white"/>
<path opacity="0.47" d="M52.599 23.9133C50.8405 23.4082 49.8255 21.5747 50.3335 19.826C50.8414 18.0774 52.6853 17.0681 54.4439 17.5733C56.2024 18.0784 57.2175 19.9119 56.7094 21.6605C56.3012 23.0625 55.0348 23.9912 53.6418 24.0404C53.3008 24.0556 52.9484 24.0156 52.599 23.9133ZM50.9327 19.9986C50.5194 21.4181 51.345 22.9065 52.7725 23.3175C54.2 23.7284 55.6969 22.9075 56.1102 21.488C56.5235 20.0685 55.6979 18.5801 54.2704 18.1691C53.9884 18.0879 53.7025 18.0531 53.4226 18.0652C52.2951 18.1093 51.2651 18.8625 50.9327 19.9986Z" fill="white"/>
<path opacity="0.36" d="M47.9228 38.0637L27.3598 41.0205C26.2667 41.1776 25.2509 40.4227 25.0928 39.3358L22.1193 18.8885C21.9612 17.8016 22.7204 16.7914 23.8135 16.6343L44.3765 13.6775C45.4696 13.5203 46.4854 14.2753 46.6435 15.3622L49.617 35.8094C49.7724 36.8999 49.0159 37.9066 47.9228 38.0637Z" fill="#4C65BA"/>
<path d="M46.4969 37.0047L25.9339 39.9615C24.8408 40.1187 23.8249 39.3637 23.6669 38.2768L20.6934 17.8295C20.5354 16.7426 21.2946 15.7324 22.3876 15.5753L42.9506 12.6185C44.0437 12.4614 45.0596 13.2163 45.2176 14.3032L48.1911 34.7505C48.3496 35.8405 47.5899 36.8476 46.4969 37.0047Z" fill="white"/>
<path opacity="0.39" d="M43.129 14.7163L22.7841 17.6417L25.726 37.8722L46.071 34.9468L43.129 14.7163Z" fill="#FF7875"/>
<path opacity="0.47" d="M46.4362 35.0749L25.4746 38.0889L24.7942 33.4099L27.8094 28.7179C28.2448 28.0389 29.117 27.806 29.8385 28.1764L33.5152 30.0663C33.7009 30.1628 33.9301 30.1204 34.0659 29.9618L38.262 25.1695C39.1782 24.1241 40.7464 23.9113 41.9127 24.673L45.2366 26.8475L46.4331 35.0754L46.4362 35.0749ZM25.9985 37.3845L45.7269 34.5478L44.6591 27.2056L41.5674 25.1843C40.6613 24.5938 39.4423 24.7595 38.7303 25.5701L34.5343 30.3623C34.207 30.735 33.6688 30.8377 33.2256 30.6105L29.5458 28.7212C29.1129 28.4989 28.5898 28.6405 28.3311 29.0476L25.4401 33.5447L25.9985 37.3845Z" fill="white"/>
<path opacity="0.47" d="M35.4231 24.3201C34.003 24.5243 32.6775 23.542 32.4717 22.1268C32.2659 20.7116 33.2542 19.3966 34.6774 19.192C36.0974 18.9878 37.423 19.9701 37.6287 21.3853C37.8346 22.8005 36.8432 24.1159 35.4231 24.3201ZM34.7669 19.8083C33.6863 19.9636 32.9352 20.9631 33.0914 22.0377C33.2476 23.1122 34.2529 23.8592 35.3335 23.7038C36.4141 23.5484 37.1653 22.5489 37.0091 21.4744C36.8528 20.3999 35.8476 19.6529 34.7669 19.8083Z" fill="white"/>
<path opacity="0.36" d="M32.9793 43.5187L19.5599 48.5195C18.3243 48.9788 16.9496 48.3589 16.4877 47.1302L11.4586 33.7863C10.9967 32.5575 11.6201 31.1906 12.8558 30.7313L26.2753 25.7306C27.5109 25.2712 28.8855 25.8912 29.3475 27.1199L34.3765 40.4638C34.8385 41.6925 34.2113 43.0594 32.9793 43.5187Z" fill="#4C65BA"/>
<path d="M31.7287 42.9551L18.3093 47.9558C17.0736 48.4151 15.699 47.7952 15.237 46.5665L10.208 33.2226C9.74607 31.9938 10.3695 30.6269 11.6052 30.1676L25.0246 25.1669C26.2603 24.7075 27.6349 25.3275 28.0969 26.5562L33.1259 39.9001C33.5916 41.1288 32.9644 42.4956 31.7287 42.9551Z" fill="white"/>
<path d="M26.3007 26.4185L11.4594 31.9488L17.0209 46.7066L31.8623 41.1764L26.3007 26.4185Z" fill="#FFBB96"/>
<path opacity="0.47" d="M16.7848 47.082L15.4364 43.5005L16.95 39.4259C17.1904 38.7799 17.8777 38.4251 18.5462 38.6043L21.6297 39.4259C21.7273 39.4521 21.8288 39.4073 21.8776 39.3214L24.2475 35.0265C24.7958 34.0331 26.0127 33.5887 27.0793 33.9958L29.9976 35.1124L32.3262 41.297L16.7848 47.082ZM16.2289 43.4967L17.2204 46.1296L31.3647 40.8601L29.4117 35.6801L26.8052 34.683C26.0878 34.4065 25.2653 34.7091 24.8935 35.3776L22.5236 39.6724C22.3095 40.0609 21.8588 40.2513 21.4307 40.1392L18.3471 39.3176C18.0504 39.2392 17.75 39.3961 17.6411 39.6799L16.2289 43.4967Z" fill="white"/>
<path opacity="0.47" d="M21.3779 35.1725C20.5103 35.1725 19.6915 34.6459 19.3723 33.7907C18.9592 32.6926 19.5188 31.4639 20.6268 31.0532C21.7309 30.6423 22.9666 31.1988 23.3797 32.3005C23.7928 33.3985 23.2332 34.6272 22.1253 35.038C21.8812 35.1314 21.6295 35.1725 21.3779 35.1725ZM21.3741 31.6581C21.2126 31.6581 21.0473 31.688 20.8858 31.7478C20.1647 32.0167 19.8004 32.8159 20.0709 33.533C20.3413 34.25 21.145 34.6123 21.8661 34.3471C22.5872 34.0782 22.9515 33.279 22.6812 32.562C22.4746 32.0017 21.9412 31.6581 21.3741 31.6581Z" fill="white"/>
<path opacity="0.36" d="M71.5706 45.7246L58.2076 50.8721C56.9771 51.345 55.5957 50.7401 55.1201 49.5165L49.9435 36.2285C49.4679 35.005 50.0762 33.6313 51.3067 33.1584L64.6699 28.0109C65.9002 27.5381 67.2816 28.1429 67.7576 29.3665L72.9338 42.6545C73.4098 43.8781 72.7978 45.2518 71.5706 45.7246Z" fill="#4C65BA"/>
<path d="M70.3139 45.1743L56.9507 50.3218C55.7202 50.7947 54.3388 50.1898 53.8633 48.9663L48.6867 35.6783C48.2111 34.4547 48.8194 33.0811 50.0499 32.6082L63.4131 27.4607C64.6434 26.9878 66.0248 27.5927 66.5008 28.8162L71.677 42.1042C72.1562 43.3277 71.5442 44.7014 70.3139 45.1743Z" fill="white"/>
<path d="M64.7032 28.6969L49.924 34.3895L55.6488 49.0856L70.4278 43.393L64.7032 28.6969Z" fill="#D9F7BE"/>
<path opacity="0.47" d="M55.4163 49.4644L54.0283 45.8978L55.4967 41.807C55.7298 41.1583 56.4132 40.796 57.0837 40.9679L60.1761 41.7557C60.2741 41.7808 60.3749 41.7348 60.4228 41.6484L62.745 37.3279C63.2822 36.3285 64.4943 35.8707 65.5653 36.2661L68.4956 37.3507L70.8926 43.5094L55.4163 49.4644ZM54.8207 45.8854L55.8414 48.5073L69.9267 43.083L67.9163 37.9248L65.2989 36.9562C64.578 36.6878 63.7595 36.9992 63.3949 37.6718L61.0727 41.9923C60.8629 42.3831 60.4143 42.5785 59.9849 42.4712L56.8925 41.6834C56.595 41.6082 56.2962 41.7683 56.1905 42.0533L54.8207 45.8854Z" fill="white"/>
<path opacity="0.47" d="M59.8778 37.5051C59.0103 37.5146 58.1857 36.997 57.857 36.1454C57.4317 35.052 57.9777 33.8172 59.081 33.3943C60.1806 32.9714 61.4224 33.5143 61.8477 34.6114C62.2729 35.7048 61.727 36.9396 60.6236 37.3625C60.3806 37.4585 60.1294 37.5024 59.8778 37.5051ZM59.8351 33.9911C59.6736 33.9928 59.5087 34.0245 59.3479 34.0861C58.6298 34.3628 58.2744 35.166 58.5527 35.88C58.831 36.5941 59.6388 36.9475 60.3569 36.6745C61.0749 36.3977 61.4304 35.5945 61.152 34.8805C60.9393 34.3226 60.4022 33.9849 59.8351 33.9911Z" fill="white"/>
<path d="M40.5866 67.8966C51.5834 67.8966 60.4981 59.0319 60.4981 48.0969C60.4981 37.162 51.5834 28.2974 40.5866 28.2974C29.5897 28.2974 20.675 37.162 20.675 48.0969C20.675 59.0319 29.5897 67.8966 40.5866 67.8966Z" fill="#1890FF"/>
<path d="M66.1275 69.9514H15.0428C8.32796 69.9514 2.8844 64.5389 2.8844 57.8617V53.8849C2.8844 47.2079 8.32796 41.795 15.0428 41.795H66.1275C72.8425 41.795 78.2857 47.2079 78.2857 53.8849V57.8617C78.2857 64.5389 72.8425 69.9514 66.1275 69.9514Z" fill="#1890FF"/>
<path d="M54.6642 57.9474C62.4401 50.2152 62.4401 37.679 54.6642 29.9469C46.8884 22.2148 34.2812 22.2148 26.5054 29.9469C18.7295 37.679 18.7295 50.2152 26.5054 57.9474C34.2812 65.6797 46.8884 65.6797 54.6642 57.9474Z" fill="#1890FF"/>
<path d="M35.9294 46.8945C35.6934 46.8945 35.4542 46.8038 35.2749 46.6223C34.9193 46.2625 34.9256 45.6868 35.2875 45.3332L40.6303 40.1111L45.8883 45.3395C46.247 45.6961 46.247 46.2719 45.8883 46.6286C45.5295 46.9853 44.9506 46.9853 44.5919 46.6286L40.6177 42.6768L36.5681 46.6348C36.3919 46.8069 36.1622 46.8945 35.9294 46.8945Z" fill="white"/>
<path d="M40.586 54.1379C40.0794 54.1379 39.6704 53.7312 39.6704 53.2275V41.3909C39.6704 40.8872 40.0794 40.4804 40.586 40.4804C41.0926 40.4804 41.5017 40.8872 41.5017 41.3909V53.2275C41.5017 53.7312 41.0926 54.1379 40.586 54.1379Z" fill="white"/>
<path d="M49.2427 59.7611H31.7887C30.5364 59.7611 29.52 58.7473 29.52 57.5051V51.2005C29.52 50.6967 29.929 50.2899 30.4356 50.2899C30.9422 50.2899 31.3513 50.6967 31.3513 51.2005V57.5051C31.3513 57.7461 31.5464 57.94 31.7887 57.94H49.2427C49.5605 57.94 49.8154 57.6835 49.8154 57.3706V51.2005C49.8154 50.6967 50.2244 50.2899 50.731 50.2899C51.2376 50.2899 51.6467 50.6967 51.6467 51.2005V57.3706C51.6499 58.6878 50.5706 59.7611 49.2427 59.7611Z" fill="white"/>
<defs>
<filter id="filter0_d_17_3047" x="0.602539" y="11.7648" width="37.4565" height="35.9607" filterUnits="userSpaceOnUse" color-interpolation-filters="sRGB">
<feFlood flood-opacity="0" result="BackgroundImageFix"/>
<feColorMatrix in="SourceAlpha" type="matrix" values="0 0 0 0 0 0 0 0 0 0 0 0 0 0 0 0 0 0 127 0" result="hardAlpha"/>
<feOffset dy="1"/>
<feComposite in2="hardAlpha" operator="out"/>
<feColorMatrix type="matrix" values="0 0 0 0 0.0941176 0 0 0 0 0.564706 0 0 0 0 1 0 0 0 0.2 0"/>
<feBlend mode="normal" in2="BackgroundImageFix" result="effect1_dropShadow_17_3047"/>
<feBlend mode="normal" in="SourceGraphic" in2="effect1_dropShadow_17_3047" result="shape"/>
</filter>
<filter id="filter1_d_17_3047" x="45.8312" y="8.4978" width="38.6221" height="36.2318" filterUnits="userSpaceOnUse" color-interpolation-filters="sRGB">
<feFlood flood-opacity="0" result="BackgroundImageFix"/>
<feColorMatrix in="SourceAlpha" type="matrix" values="0 0 0 0 0 0 0 0 0 0 0 0 0 0 0 0 0 0 127 0" result="hardAlpha"/>
<feOffset dx="1" dy="1"/>
<feComposite in2="hardAlpha" operator="out"/>
<feColorMatrix type="matrix" values="0 0 0 0 0.0941176 0 0 0 0 0.564706 0 0 0 0 1 0 0 0 0.2 0"/>
<feBlend mode="normal" in2="BackgroundImageFix" result="effect1_dropShadow_17_3047"/>
<feBlend mode="normal" in="SourceGraphic" in2="effect1_dropShadow_17_3047" result="shape"/>
</filter>
</defs>
</svg>
