<svg width="20" height="20" viewBox="0 0 20 20" fill="none" xmlns="http://www.w3.org/2000/svg">
<path d="M10 0C4.47727 0 0 4.47727 0 10C0 15.5227 4.47727 20 10 20C15.5227 20 20 15.5227 20 10C20 4.47727 15.5227 0 10 0ZM10 1.81818C14.5186 1.81818 18.1818 5.48136 18.1818 10C18.1818 14.5186 14.5186 18.1818 10 18.1818C5.48136 18.1818 1.81818 14.5186 1.81818 10C1.81818 5.48136 5.48136 1.81818 10 1.81818ZM10 5C9.24682 5 8.63636 5.61045 8.63636 6.36364C8.63636 7.11682 9.24682 7.72727 10 7.72727C10.7532 7.72727 11.3636 7.11682 11.3636 6.36364C11.3636 5.61045 10.7532 5 10 5ZM10 9.09091C9.49773 9.09091 9.09091 9.49818 9.09091 10V14.5455C9.09091 15.0473 9.49773 15.4545 10 15.4545C10.5023 15.4545 10.9091 15.0473 10.9091 14.5455V10C10.9091 9.49818 10.5023 9.09091 10 9.09091Z" fill="#056ECE"/>
</svg>
